  http://www.imdb.com/title/tt0073812/

Release Date: 26 March 1975 (UK)

Genre: Drama | Fantasy | Musical

Plot: A psychosomatically deaf, dumb and blind boy becomes a master pinball player and the object of a religious cult because of that.

Cast:
Oliver Reed ... Frank Hobbs
Ann-Margret ... Nora Walker
Roger Daltrey ... Tommy Walker
Elton John ... Local Lad
Eric Clapton ... The Preacher
John Entwistle ... Himself
Keith Moon ... Uncle Ernie
Paul Nicholas ... Cousin Kevin
Jack Nicholson ... The Specialist
Robert Powell ... Captain Walker
Pete Townshend ... Himself
Tina Turner ... The Acid Queen
Arthur Brown ... The Priest
Victoria Russell ... Sally Simpson
Ben Aris ... Reverend Simpson

screens
 
http://www.imagebam.com/image/eb62ae97445923

File Name

Tommy 1975 1040p BRRip H264.mp4

File Size
Format : MPEG-4
Format profile : Base Media
Codec ID : isom
File size : 3.73 GiB
Duration : 1h 51mn
Overall bit rate : 4 790 Kbps

Video
ID : 1
Format : AVC
Format/Info : Advanced Video Codec
Format profile : High@L4.1
Format settings, CABAC : Yes
Format settings, ReFrames : 3 frames
Codec ID : avc1
Codec ID/Info : Advanced Video Coding
Duration : 1h 51mn
Bit rate mode : Variable
Bit rate : 4 149 Kbps
Maximum bit rate : 20.0 Mbps
Width : 1 920 pixels
Height : 1 040 pixels
Display aspect ratio : 16:9
Frame rate mode : Constant
Frame rate : 23.976 fps
Resolution : 24 bits
Colorimetry : 4:2:0
Scan type : Progressive
Bits/(Pixel*Frame) : 0.087
Stream size : 3.23 GiB (87%)

Audio #1
ID : 2
Format : AAC
Format/Info : Advanced Audio Codec
Format version : Version 4
Format profile : LC
Format settings, SBR : No
Codec ID : 40
Duration : 1h 51mn
Bit rate mode : Variable
Bit rate : 192 Kbps
Maximum bit rate : 196 Kbps
Channel(s) : 2 channels
Channel positions : L R
Sampling rate : 48.0 KHz
Resolution : 16 bits
Stream size : 152 MiB (4%)

Audio #2
ID : 3
Format : AAC
Format/Info : Advanced Audio Codec
Format version : Version 4
Format profile : LC
Format settings, SBR : No
Codec ID : 40
Duration : 1h 51mn
Bit rate mode : Variable
Bit rate : 448 Kbps
Maximum bit rate : 463 Kbps
Channel(s) : 6 channels
Channel positions : Front: L C R, Rear: L R, LFE
Sampling rate : 48.0 KHz
Resolution : 16 bits
Stream size : 357 MiB (9%)

English SRT : External

Language : English

Tommy 1975 1040p BRRip H264 - Wrath